<svg width="52" height="52" viewBox="0 0 52 52" fill="none" xmlns="http://www.w3.org/2000/svg">
<path d="M27.56 23.4002C26.52 23.1402 25.48 22.6202 24.7 21.8402C23.92 21.5802 23.66 20.8002 23.66 20.2802C23.66 19.7602 23.92 18.9802 24.44 18.7202C25.22 18.2002 26 17.6802 26.78 17.9402C28.34 17.9402 29.64 18.7202 30.42 19.7602L32.76 16.6402C31.98 15.8602 31.2 15.3402 30.42 14.8202C29.64 14.3002 28.6 14.0402 27.56 14.0402V10.4002H24.44V14.0402C23.14 14.3002 21.84 15.0802 20.8 16.1202C19.76 17.4202 18.98 18.9802 19.24 20.5402C19.24 22.1002 19.76 23.6602 20.8 24.7002C22.1 26.0002 23.92 26.7802 25.48 27.5602C26.26 27.8202 27.3 28.3402 28.08 28.8602C28.6 29.3802 28.86 30.1602 28.86 30.9402C28.86 31.7202 28.6 32.5002 28.08 33.2802C27.3 34.0602 26.26 34.3202 25.48 34.3202C24.44 34.3202 23.14 34.0602 22.36 33.2802C21.58 32.7602 20.8 31.9802 20.28 31.2002L17.68 34.0602C18.46 35.1002 19.24 35.8802 20.28 36.6602C21.58 37.4402 23.14 38.2202 24.7 38.2202V41.6002H27.56V37.7002C29.12 37.4402 30.42 36.6602 31.46 35.6202C32.76 34.3202 33.54 32.2402 33.54 30.4202C33.54 28.8602 33.02 27.0402 31.72 26.0002C30.42 24.7002 29.12 23.9202 27.56 23.4002ZM26 5.2002C14.56 5.2002 5.2 14.5602 5.2 26.0002C5.2 37.4402 14.56 46.8002 26 46.8002C37.44 46.8002 46.8 37.4402 46.8 26.0002C46.8 14.5602 37.44 5.2002 26 5.2002ZM26 43.9402C16.12 43.9402 8.06 35.8802 8.06 26.0002C8.06 16.1202 16.12 8.06019 26 8.06019C35.88 8.06019 43.94 16.1202 43.94 26.0002C43.94 35.8802 35.88 43.9402 26 43.9402Z" fill="#950505"/>
</svg>
